<?xml version="1.0" standalone="no"?>
<!DOCTYPE svg PUBLIC "-//W3C//DTD SVG 20010904//EN"
 "http://www.w3.org/TR/2001/REC-SVG-20010904/DTD/svg10.dtd">
<svg version="1.0" xmlns="http://www.w3.org/2000/svg"
 width="512.000000pt" height="512.000000pt" viewBox="0 0 512.000000 512.000000"
 preserveAspectRatio="xMidYMid meet">
<metadata>
Created by potrace 1.14, written by Peter Selinger 2001-2017
</metadata>
<g transform="translate(0.000000,512.000000) scale(0.100000,-0.100000)"
fill="#000000" stroke="none">
<path d="M205 5102 c-64 -22 -109 -54 -145 -104 -65 -89 -60 100 -58 -2458 l3
-2325 30 -54 c37 -66 92 -115 162 -141 54 -20 68 -20 2381 -18 l2327 3 54 30
c66 37 115 92 141 162 20 54 20 68 18 2381 l-3 2327 -30 54 c-37 66 -92 115
-162 141 -53 20 -75 20 -2361 20 -2164 -1 -2310 -2 -2357 -18z m4615 -2542 l0
-2260 -2260 0 -2260 0 0 2260 0 2260 2260 0 2260 0 0 -2260z"/>
<path d="M1688 3969 c-68 -35 -96 -125 -61 -192 9 -18 181 -295 382 -617 201
-322 365 -592 365 -600 0 -8 -164 -278 -365 -600 -201 -322 -373 -599 -382
-617 -35 -67 -5 -158 63 -194 33 -18 76 -19 868 -19 749 0 837 2 868 16 107
51 109 210 4 264 -38 19 -57 20 -719 20 l-680 0 736 1177 c591 947 737 1186
741 1219 6 57 -26 118 -78 144 -49 25 -90 25 -139 1 -34 -18 -76 -81 -382
-570 -189 -303 -346 -551 -349 -551 -3 0 -160 248 -349 551 -306 489 -348 552
-382 570 -48 24 -94 24 -141 -2z"/>
</g>
</svg>
